<svg width="9" height="15" viewBox="0 0 9 15" fill="none" xmlns="http://www.w3.org/2000/svg">
<g id="back arrow" clip-path="url(#clip0_1_1184)">
<path id="Vector" d="M0.568532 2.63182C0.371401 2.43182 0.261883 2.16867 0.272835 1.89498C0.272835 1.6213 0.382352 1.36866 0.590436 1.16867C0.787568 0.979191 1.06136 0.863402 1.34611 0.863402C1.63085 0.863402 1.90465 0.95814 2.11273 1.14761L8.31143 7.10551C8.40999 7.20025 8.48666 7.31603 8.54141 7.44235C8.59617 7.56867 8.62903 7.70551 8.62903 7.84235C8.62903 7.97919 8.59617 8.11603 8.54141 8.25288C8.48666 8.37919 8.40999 8.49498 8.31143 8.58972L2.11273 14.5476C2.01416 14.6424 1.89369 14.7266 1.76227 14.7792C1.6199 14.8318 1.47753 14.8634 1.33516 14.8634C1.19278 14.8634 1.03946 14.8424 0.908036 14.7897C0.776615 14.7371 0.656145 14.6529 0.546628 14.5581C0.448062 14.4634 0.3714 14.3371 0.316641 14.2108C0.25093 14.0845 0.229027 13.9476 0.229027 13.8002C0.229027 13.6634 0.261882 13.5266 0.316641 13.4002C0.3714 13.2739 0.459014 13.1581 0.568531 13.0529L5.98965 7.84235L4.96019 6.8634L0.568532 2.63182Z" fill="#181725"/>
</g>
<defs>
<clipPath id="clip0_1_1184">
<rect width="8.4" height="14" fill="white" transform="translate(8.62903 14.8634) rotate(-180)"/>
</clipPath>
</defs>
</svg>
