<svg width="19" height="20" viewBox="0 0 19 20" fill="none" xmlns="http://www.w3.org/2000/svg">
<g id="Search">
<path id="Vector" d="M8.0005 14.8978C8.78843 14.8978 9.56865 14.7426 10.2966 14.4411C11.0246 14.1396 11.686 13.6976 12.2431 13.1405C12.8003 12.5833 13.2423 11.9219 13.5438 11.1939C13.8453 10.466 14.0005 9.68577 14.0005 8.89784C14.0005 8.10991 13.8453 7.32969 13.5438 6.60174C13.2423 5.87379 12.8003 5.21235 12.2431 4.6552C11.686 4.09805 11.0246 3.65609 10.2966 3.35456C9.56865 3.05304 8.78843 2.89784 8.0005 2.89784C6.4092 2.89784 4.88308 3.52998 3.75786 4.6552C2.63264 5.78042 2.0005 7.30654 2.0005 8.89784C2.0005 10.4891 2.63264 12.0153 3.75786 13.1405C4.88308 14.2657 6.4092 14.8978 8.0005 14.8978ZM14.3205 13.8038L17.9005 17.3838C17.9959 17.4762 18.072 17.5866 18.1244 17.7086C18.1767 17.8306 18.2042 17.9619 18.2052 18.0947C18.2063 18.2274 18.1809 18.3591 18.1305 18.482C18.0802 18.6048 18.0058 18.7164 17.9119 18.8102C17.8179 18.9041 17.7062 18.9782 17.5833 19.0284C17.4604 19.0786 17.3287 19.1038 17.1959 19.1026C17.0631 19.1013 16.9319 19.0737 16.8099 19.0212C16.688 18.9687 16.5777 18.8924 16.4855 18.7968L12.9055 15.2168C11.298 16.4647 9.2753 17.053 7.24926 16.862C5.22322 16.6711 3.34611 15.7152 2.00005 14.1889C0.654 12.6627 -0.0598121 10.6808 0.00392902 8.64677C0.0676701 6.61274 0.904173 4.67947 2.34315 3.24049C3.78213 1.80151 5.7154 0.965009 7.74943 0.901268C9.78345 0.837527 11.7653 1.55134 13.2916 2.89739C14.8178 4.24345 15.7737 6.12056 15.9647 8.1466C16.1557 10.1726 15.5674 12.1953 14.3195 13.8028L14.3205 13.8038Z" fill="#231F20"/>
</g>
</svg>
